<svg xmlns="http://www.w3.org/2000/svg" xmlns:xlink="http://www.w3.org/1999/xlink" viewBox="30 0 1590 680"><g id="graph0" class="graph" transform="scale(4.1667 4.1667) rotate(0) translate(4 160.5)"><title>%3</title><polygon fill="#fff" stroke="transparent" points="-4 4 -4 -160.5 388 -160.5 388 4 -4 4"/><g id="node1" class="node"><title>table0</title><polyline fill="none" stroke="#000" points="8 -131 100 -131"/><text x="51" y="-137.8" fill="#000" font-family="Times,Liberation Serif,serif" font-size="14" text-anchor="start">s</text><polygon fill="none" stroke="#000" points="8 -110 8 -131 60 -131 60 -110 8 -110"/><text x="21.5" y="-116.8" fill="#000" font-family="Times,Liberation Serif,serif" font-size="14" text-anchor="start">nom</text><polygon fill="none" stroke="#000" points="60 -110 60 -131 100 -131 100 -110 60 -110"/><text x="63" y="-116.8" fill="#000" font-family="Times,Liberation Serif,serif" font-size="14" text-anchor="start">valeur</text><polygon fill="none" stroke="#000" points="8 -89 8 -110 60 -110 60 -89 8 -89"/><text x="11" y="-95.8" fill="#000" font-family="Times,Liberation Serif,serif" font-size="14" text-anchor="start">pointeur</text><polygon fill="none" stroke="#000" points="60 -89 60 -110 100 -110 100 -89 60 -89"/></g><g id="node2" class="node"><title>table1</title><polyline fill="none" stroke="#000" points="152 -131 244 -131"/><text x="191.5" y="-137.8" fill="#000" font-family="Times,Liberation Serif,serif" font-size="14" text-anchor="start">s1</text><polygon fill="none" stroke="#000" points="152 -110 152 -131 204 -131 204 -110 152 -110"/><text x="165.5" y="-116.8" fill="#000" font-family="Times,Liberation Serif,serif" font-size="14" text-anchor="start">nom</text><polygon fill="none" stroke="#000" points="204 -110 204 -131 244 -131 244 -110 204 -110"/><text x="207" y="-116.8" fill="#000" font-family="Times,Liberation Serif,serif" font-size="14" text-anchor="start">valeur</text><polygon fill="none" stroke="#000" points="152 -89 152 -110 204 -110 204 -89 152 -89"/><text x="155" y="-95.8" fill="#000" font-family="Times,Liberation Serif,serif" font-size="14" text-anchor="start">pointeur</text><polygon fill="none" stroke="#000" points="204 -89 204 -110 244 -110 244 -89 204 -89"/><polygon fill="none" stroke="#000" points="152 -68 152 -89 204 -89 204 -68 152 -68"/><text x="164" y="-74.8" fill="#000" font-family="Times,Liberation Serif,serif" font-size="14" text-anchor="start">taille</text><polygon fill="none" stroke="#000" points="204 -68 204 -89 244 -89 244 -68 204 -68"/><text x="220.5" y="-74.8" fill="#000" font-family="Times,Liberation Serif,serif" font-size="14" text-anchor="start">5</text><polygon fill="none" stroke="#000" points="152 -47 152 -68 204 -68 204 -47 152 -47"/><text x="155.5" y="-53.8" fill="#000" font-family="Times,Liberation Serif,serif" font-size="14" text-anchor="start">capacité</text><polygon fill="none" stroke="#000" points="204 -47 204 -68 244 -68 244 -47 204 -47"/><text x="220.5" y="-53.8" fill="#000" font-family="Times,Liberation Serif,serif" font-size="14" text-anchor="start">5</text></g><g id="edge2" class="edge"><title>table0:c-&gt;table1:borrowee</title><path fill="none" stroke="#000" d="M80,-99C80,-99 112.0074,-99 141.6643,-99"/><polygon fill="#000" stroke="#000" points="142 -102.5 152 -99 142 -95.5 142 -102.5"/></g><g id="node3" class="node"><title>table2</title><polygon fill="none" stroke="#000" points="296 -109 296 -130 336 -130 336 -109 296 -109"/><text x="299" y="-115.8" fill="#000" font-family="Times,Liberation Serif,serif" font-size="14" text-anchor="start">indice</text><polygon fill="none" stroke="#000" points="336 -109 336 -130 376 -130 376 -109 336 -109"/><text x="339" y="-115.8" fill="#000" font-family="Times,Liberation Serif,serif" font-size="14" text-anchor="start">valeur</text><polygon fill="none" stroke="#000" points="296 -88 296 -109 336 -109 336 -88 296 -88"/><text x="312.5" y="-94.8" fill="#000" font-family="Times,Liberation Serif,serif" font-size="14" text-anchor="start">0</text><polygon fill="none" stroke="#000" points="336 -88 336 -109 376 -109 376 -88 336 -88"/><text x="352.5" y="-94.8" fill="#000" font-family="Times,Liberation Serif,serif" font-size="14" text-anchor="start">h</text><polygon fill="none" stroke="#000" points="296 -67 296 -88 336 -88 336 -67 296 -67"/><text x="312.5" y="-73.8" fill="#000" font-family="Times,Liberation Serif,serif" font-size="14" text-anchor="start">1</text><polygon fill="none" stroke="#000" points="336 -67 336 -88 376 -88 376 -67 336 -67"/><text x="352.5" y="-73.8" fill="#000" font-family="Times,Liberation Serif,serif" font-size="14" text-anchor="start">e</text><polygon fill="none" stroke="#000" points="296 -46 296 -67 336 -67 336 -46 296 -46"/><text x="312.5" y="-52.8" fill="#000" font-family="Times,Liberation Serif,serif" font-size="14" text-anchor="start">2</text><polygon fill="none" stroke="#000" points="336 -46 336 -67 376 -67 376 -46 336 -46"/><text x="354" y="-52.8" fill="#000" font-family="Times,Liberation Serif,serif" font-size="14" text-anchor="start">l</text><polygon fill="none" stroke="#000" points="296 -25 296 -46 336 -46 336 -25 296 -25"/><text x="312.5" y="-31.8" fill="#000" font-family="Times,Liberation Serif,serif" font-size="14" text-anchor="start">3</text><polygon fill="none" stroke="#000" points="336 -25 336 -46 376 -46 376 -25 336 -25"/><text x="354" y="-31.8" fill="#000" font-family="Times,Liberation Serif,serif" font-size="14" text-anchor="start">l</text><polygon fill="none" stroke="#000" points="296 -4 296 -25 336 -25 336 -4 296 -4"/><text x="312.5" y="-10.8" fill="#000" font-family="Times,Liberation Serif,serif" font-size="14" text-anchor="start">4</text><polygon fill="none" stroke="#000" points="336 -4 336 -25 376 -25 376 -4 336 -4"/><text x="352.5" y="-10.8" fill="#000" font-family="Times,Liberation Serif,serif" font-size="14" text-anchor="start">o</text></g><g id="edge1" class="edge"><title>table1:c-&gt;table2:pointee</title><path fill="none" stroke="#000" d="M224,-99C224,-99 256.0074,-99 285.6643,-99"/><polygon fill="#000" stroke="#000" points="286 -102.5 296 -99 286 -95.5 286 -102.5"/></g></g></svg>