<svg xmlns="http://www.w3.org/2000/svg" xmlns:xlink="http://www.w3.org/1999/xlink" viewBox="0 0 1000 1310"><g id="graph0" class="graph" transform="scale(4.1667 4.1667) rotate(0) translate(4 312.5)"><title>%3</title><polygon fill="#fff" stroke="transparent" points="-4 4 -4 -312.5 244 -312.5 244 4 -4 4"/><g id="node1" class="node"><title>table0</title><polyline fill="none" stroke="#000" points="8 -131 100 -131"/><text x="47.5" y="-137.8" fill="#000" font-family="Times,Liberation Serif,serif" font-size="14" text-anchor="start">s2</text><polygon fill="none" stroke="#000" points="8 -110 8 -131 60 -131 60 -110 8 -110"/><text x="21.5" y="-116.8" fill="#000" font-family="Times,Liberation Serif,serif" font-size="14" text-anchor="start">nom</text><polygon fill="none" stroke="#000" points="60 -110 60 -131 100 -131 100 -110 60 -110"/><text x="63" y="-116.8" fill="#000" font-family="Times,Liberation Serif,serif" font-size="14" text-anchor="start">valeur</text><polygon fill="none" stroke="#000" points="8 -89 8 -110 60 -110 60 -89 8 -89"/><text x="11" y="-95.8" fill="#000" font-family="Times,Liberation Serif,serif" font-size="14" text-anchor="start">pointeur</text><polygon fill="none" stroke="#000" points="60 -89 60 -110 100 -110 100 -89 60 -89"/><polygon fill="none" stroke="#000" points="8 -68 8 -89 60 -89 60 -68 8 -68"/><text x="20" y="-74.8" fill="#000" font-family="Times,Liberation Serif,serif" font-size="14" text-anchor="start">taille</text><polygon fill="none" stroke="#000" points="60 -68 60 -89 100 -89 100 -68 60 -68"/><text x="76.5" y="-74.8" fill="#000" font-family="Times,Liberation Serif,serif" font-size="14" text-anchor="start">5</text><polygon fill="none" stroke="#000" points="8 -47 8 -68 60 -68 60 -47 8 -47"/><text x="11.5" y="-53.8" fill="#000" font-family="Times,Liberation Serif,serif" font-size="14" text-anchor="start">capacité</text><polygon fill="none" stroke="#000" points="60 -47 60 -68 100 -68 100 -47 60 -47"/><text x="76.5" y="-53.8" fill="#000" font-family="Times,Liberation Serif,serif" font-size="14" text-anchor="start">5</text></g><g id="node2" class="node"><title>table1</title><polygon fill="none" stroke="#000" points="152 -109 152 -130 192 -130 192 -109 152 -109"/><text x="155" y="-115.8" fill="#000" font-family="Times,Liberation Serif,serif" font-size="14" text-anchor="start">indice</text><polygon fill="none" stroke="#000" points="192 -109 192 -130 232 -130 232 -109 192 -109"/><text x="195" y="-115.8" fill="#000" font-family="Times,Liberation Serif,serif" font-size="14" text-anchor="start">valeur</text><polygon fill="none" stroke="#000" points="152 -88 152 -109 192 -109 192 -88 152 -88"/><text x="168.5" y="-94.8" fill="#000" font-family="Times,Liberation Serif,serif" font-size="14" text-anchor="start">0</text><polygon fill="none" stroke="#000" points="192 -88 192 -109 232 -109 232 -88 192 -88"/><text x="208.5" y="-94.8" fill="#000" font-family="Times,Liberation Serif,serif" font-size="14" text-anchor="start">h</text><polygon fill="none" stroke="#000" points="152 -67 152 -88 192 -88 192 -67 152 -67"/><text x="168.5" y="-73.8" fill="#000" font-family="Times,Liberation Serif,serif" font-size="14" text-anchor="start">1</text><polygon fill="none" stroke="#000" points="192 -67 192 -88 232 -88 232 -67 192 -67"/><text x="208.5" y="-73.8" fill="#000" font-family="Times,Liberation Serif,serif" font-size="14" text-anchor="start">e</text><polygon fill="none" stroke="#000" points="152 -46 152 -67 192 -67 192 -46 152 -46"/><text x="168.5" y="-52.8" fill="#000" font-family="Times,Liberation Serif,serif" font-size="14" text-anchor="start">2</text><polygon fill="none" stroke="#000" points="192 -46 192 -67 232 -67 232 -46 192 -46"/><text x="210" y="-52.8" fill="#000" font-family="Times,Liberation Serif,serif" font-size="14" text-anchor="start">l</text><polygon fill="none" stroke="#000" points="152 -25 152 -46 192 -46 192 -25 152 -25"/><text x="168.5" y="-31.8" fill="#000" font-family="Times,Liberation Serif,serif" font-size="14" text-anchor="start">3</text><polygon fill="none" stroke="#000" points="192 -25 192 -46 232 -46 232 -25 192 -25"/><text x="210" y="-31.8" fill="#000" font-family="Times,Liberation Serif,serif" font-size="14" text-anchor="start">l</text><polygon fill="none" stroke="#000" points="152 -4 152 -25 192 -25 192 -4 152 -4"/><text x="168.5" y="-10.8" fill="#000" font-family="Times,Liberation Serif,serif" font-size="14" text-anchor="start">4</text><polygon fill="none" stroke="#000" points="192 -4 192 -25 232 -25 232 -4 192 -4"/><text x="208.5" y="-10.8" fill="#000" font-family="Times,Liberation Serif,serif" font-size="14" text-anchor="start">o</text></g><g id="edge1" class="edge"><title>table0:c-&gt;table1:pointee</title><path fill="none" stroke="#000" d="M80,-99C80,-99 112.0074,-99 141.6643,-99"/><polygon fill="#000" stroke="#000" points="142 -102.5 152 -99 142 -95.5 142 -102.5"/></g><g id="node3" class="node"><title>table3</title><polyline fill="none" stroke="#000" points="8 -283 100 -283"/><text x="47.5" y="-289.8" fill="#000" font-family="Times,Liberation Serif,serif" font-size="14" text-anchor="start">s1</text><polygon fill="none" stroke="#000" points="8 -262 8 -283 60 -283 60 -262 8 -262"/><text x="21.5" y="-268.8" fill="#000" font-family="Times,Liberation Serif,serif" font-size="14" text-anchor="start">nom</text><polygon fill="none" stroke="#000" points="60 -262 60 -283 100 -283 100 -262 60 -262"/><text x="63" y="-268.8" fill="#000" font-family="Times,Liberation Serif,serif" font-size="14" text-anchor="start">valeur</text><polygon fill="none" stroke="#000" points="8 -241 8 -262 60 -262 60 -241 8 -241"/><text x="11" y="-247.8" fill="#000" font-family="Times,Liberation Serif,serif" font-size="14" text-anchor="start">pointeur</text><polygon fill="none" stroke="#000" points="60 -241 60 -262 100 -262 100 -241 60 -241"/><polygon fill="none" stroke="#000" points="8 -220 8 -241 60 -241 60 -220 8 -220"/><text x="20" y="-226.8" fill="#000" font-family="Times,Liberation Serif,serif" font-size="14" text-anchor="start">taille</text><polygon fill="none" stroke="#000" points="60 -220 60 -241 100 -241 100 -220 60 -220"/><text x="76.5" y="-226.8" fill="#000" font-family="Times,Liberation Serif,serif" font-size="14" text-anchor="start">5</text><polygon fill="none" stroke="#000" points="8 -199 8 -220 60 -220 60 -199 8 -199"/><text x="11.5" y="-205.8" fill="#000" font-family="Times,Liberation Serif,serif" font-size="14" text-anchor="start">capacité</text><polygon fill="none" stroke="#000" points="60 -199 60 -220 100 -220 100 -199 60 -199"/><text x="76.5" y="-205.8" fill="#000" font-family="Times,Liberation Serif,serif" font-size="14" text-anchor="start">5</text></g><g id="node4" class="node"><title>table4</title><polygon fill="none" stroke="#000" points="152 -261 152 -282 192 -282 192 -261 152 -261"/><text x="155" y="-267.8" fill="#000" font-family="Times,Liberation Serif,serif" font-size="14" text-anchor="start">indice</text><polygon fill="none" stroke="#000" points="192 -261 192 -282 232 -282 232 -261 192 -261"/><text x="195" y="-267.8" fill="#000" font-family="Times,Liberation Serif,serif" font-size="14" text-anchor="start">valeur</text><polygon fill="none" stroke="#000" points="152 -240 152 -261 192 -261 192 -240 152 -240"/><text x="168.5" y="-246.8" fill="#000" font-family="Times,Liberation Serif,serif" font-size="14" text-anchor="start">0</text><polygon fill="none" stroke="#000" points="192 -240 192 -261 232 -261 232 -240 192 -240"/><text x="208.5" y="-246.8" fill="#000" font-family="Times,Liberation Serif,serif" font-size="14" text-anchor="start">h</text><polygon fill="none" stroke="#000" points="152 -219 152 -240 192 -240 192 -219 152 -219"/><text x="168.5" y="-225.8" fill="#000" font-family="Times,Liberation Serif,serif" font-size="14" text-anchor="start">1</text><polygon fill="none" stroke="#000" points="192 -219 192 -240 232 -240 232 -219 192 -219"/><text x="208.5" y="-225.8" fill="#000" font-family="Times,Liberation Serif,serif" font-size="14" text-anchor="start">e</text><polygon fill="none" stroke="#000" points="152 -198 152 -219 192 -219 192 -198 152 -198"/><text x="168.5" y="-204.8" fill="#000" font-family="Times,Liberation Serif,serif" font-size="14" text-anchor="start">2</text><polygon fill="none" stroke="#000" points="192 -198 192 -219 232 -219 232 -198 192 -198"/><text x="210" y="-204.8" fill="#000" font-family="Times,Liberation Serif,serif" font-size="14" text-anchor="start">l</text><polygon fill="none" stroke="#000" points="152 -177 152 -198 192 -198 192 -177 152 -177"/><text x="168.5" y="-183.8" fill="#000" font-family="Times,Liberation Serif,serif" font-size="14" text-anchor="start">3</text><polygon fill="none" stroke="#000" points="192 -177 192 -198 232 -198 232 -177 192 -177"/><text x="210" y="-183.8" fill="#000" font-family="Times,Liberation Serif,serif" font-size="14" text-anchor="start">l</text><polygon fill="none" stroke="#000" points="152 -156 152 -177 192 -177 192 -156 152 -156"/><text x="168.5" y="-162.8" fill="#000" font-family="Times,Liberation Serif,serif" font-size="14" text-anchor="start">4</text><polygon fill="none" stroke="#000" points="192 -156 192 -177 232 -177 232 -156 192 -156"/><text x="208.5" y="-162.8" fill="#000" font-family="Times,Liberation Serif,serif" font-size="14" text-anchor="start">o</text></g><g id="edge2" class="edge"><title>table3:c-&gt;table4:pointee</title><path fill="none" stroke="#000" d="M80,-251C80,-251 112.0074,-251 141.6643,-251"/><polygon fill="#000" stroke="#000" points="142 -254.5 152 -251 142 -247.5 142 -254.5"/></g></g></svg>