<svg xmlns="http://www.w3.org/2000/svg" xmlns:xlink="http://www.w3.org/1999/xlink" viewBox="0 0 1000 1050"><g id="graph0" class="graph" transform="scale(4.1667 4.1667) rotate(0) translate(4 248)"><title>%3</title><polygon fill="#fff" stroke="transparent" points="-4 4 -4 -248 244 -248 244 4 -4 4"/><g id="node1" class="node"><title>table0</title><polyline fill="none" stroke="#000" points="8 -218.5 100 -218.5"/><text x="47.5" y="-225.3" fill="#000" font-family="Times,Liberation Serif,serif" font-size="14" text-anchor="start">s1</text><polygon fill="none" stroke="#000" points="8 -197.5 8 -218.5 60 -218.5 60 -197.5 8 -197.5"/><text x="21.5" y="-204.3" fill="#000" font-family="Times,Liberation Serif,serif" font-size="14" text-anchor="start">nom</text><polygon fill="none" stroke="#000" points="60 -197.5 60 -218.5 100 -218.5 100 -197.5 60 -197.5"/><text x="63" y="-204.3" fill="#000" font-family="Times,Liberation Serif,serif" font-size="14" text-anchor="start">valeur</text><polygon fill="none" stroke="#000" points="8 -176.5 8 -197.5 60 -197.5 60 -176.5 8 -176.5"/><text x="11" y="-183.3" fill="#000" font-family="Times,Liberation Serif,serif" font-size="14" text-anchor="start">pointeur</text><polygon fill="none" stroke="#000" points="60 -176.5 60 -197.5 100 -197.5 100 -176.5 60 -176.5"/><polygon fill="none" stroke="#000" points="8 -155.5 8 -176.5 60 -176.5 60 -155.5 8 -155.5"/><text x="20" y="-162.3" fill="#000" font-family="Times,Liberation Serif,serif" font-size="14" text-anchor="start">taille</text><polygon fill="none" stroke="#000" points="60 -155.5 60 -176.5 100 -176.5 100 -155.5 60 -155.5"/><text x="76.5" y="-162.3" fill="#000" font-family="Times,Liberation Serif,serif" font-size="14" text-anchor="start">5</text><polygon fill="none" stroke="#000" points="8 -134.5 8 -155.5 60 -155.5 60 -134.5 8 -134.5"/><text x="11.5" y="-141.3" fill="#000" font-family="Times,Liberation Serif,serif" font-size="14" text-anchor="start">capacité</text><polygon fill="none" stroke="#000" points="60 -134.5 60 -155.5 100 -155.5 100 -134.5 60 -134.5"/><text x="76.5" y="-141.3" fill="#000" font-family="Times,Liberation Serif,serif" font-size="14" text-anchor="start">5</text></g><g id="node3" class="node"><title>table1</title><polygon fill="none" stroke="#000" points="152 -130.5 152 -151.5 192 -151.5 192 -130.5 152 -130.5"/><text x="155" y="-137.3" fill="#000" font-family="Times,Liberation Serif,serif" font-size="14" text-anchor="start">indice</text><polygon fill="none" stroke="#000" points="192 -130.5 192 -151.5 232 -151.5 232 -130.5 192 -130.5"/><text x="195" y="-137.3" fill="#000" font-family="Times,Liberation Serif,serif" font-size="14" text-anchor="start">valeur</text><polygon fill="none" stroke="#000" points="152 -109.5 152 -130.5 192 -130.5 192 -109.5 152 -109.5"/><text x="168.5" y="-116.3" fill="#000" font-family="Times,Liberation Serif,serif" font-size="14" text-anchor="start">0</text><polygon fill="none" stroke="#000" points="192 -109.5 192 -130.5 232 -130.5 232 -109.5 192 -109.5"/><text x="208.5" y="-116.3" fill="#000" font-family="Times,Liberation Serif,serif" font-size="14" text-anchor="start">h</text><polygon fill="none" stroke="#000" points="152 -88.5 152 -109.5 192 -109.5 192 -88.5 152 -88.5"/><text x="168.5" y="-95.3" fill="#000" font-family="Times,Liberation Serif,serif" font-size="14" text-anchor="start">1</text><polygon fill="none" stroke="#000" points="192 -88.5 192 -109.5 232 -109.5 232 -88.5 192 -88.5"/><text x="208.5" y="-95.3" fill="#000" font-family="Times,Liberation Serif,serif" font-size="14" text-anchor="start">e</text><polygon fill="none" stroke="#000" points="152 -67.5 152 -88.5 192 -88.5 192 -67.5 152 -67.5"/><text x="168.5" y="-74.3" fill="#000" font-family="Times,Liberation Serif,serif" font-size="14" text-anchor="start">2</text><polygon fill="none" stroke="#000" points="192 -67.5 192 -88.5 232 -88.5 232 -67.5 192 -67.5"/><text x="210" y="-74.3" fill="#000" font-family="Times,Liberation Serif,serif" font-size="14" text-anchor="start">l</text><polygon fill="none" stroke="#000" points="152 -46.5 152 -67.5 192 -67.5 192 -46.5 152 -46.5"/><text x="168.5" y="-53.3" fill="#000" font-family="Times,Liberation Serif,serif" font-size="14" text-anchor="start">3</text><polygon fill="none" stroke="#000" points="192 -46.5 192 -67.5 232 -67.5 232 -46.5 192 -46.5"/><text x="210" y="-53.3" fill="#000" font-family="Times,Liberation Serif,serif" font-size="14" text-anchor="start">l</text><polygon fill="none" stroke="#000" points="152 -25.5 152 -46.5 192 -46.5 192 -25.5 152 -25.5"/><text x="168.5" y="-32.3" fill="#000" font-family="Times,Liberation Serif,serif" font-size="14" text-anchor="start">4</text><polygon fill="none" stroke="#000" points="192 -25.5 192 -46.5 232 -46.5 232 -25.5 192 -25.5"/><text x="208.5" y="-32.3" fill="#000" font-family="Times,Liberation Serif,serif" font-size="14" text-anchor="start">o</text></g><g id="edge1" class="edge"><title>table0:c-&gt;table1:pointee</title><path fill="none" stroke="#000" d="M80,-186.5C80,-186.5 104.0917,-130.884 141.6238,-121.7595"/><polygon fill="#000" stroke="#000" points="142.495 -125.18 152 -120.5 141.651 -118.231 142.495 -125.18"/></g><g id="node2" class="node"><title>table3</title><polyline fill="none" stroke="#000" points="8 -87.5 100 -87.5"/><text x="47.5" y="-94.3" fill="#000" font-family="Times,Liberation Serif,serif" font-size="14" text-anchor="start">s2</text><polygon fill="none" stroke="#000" points="8 -66.5 8 -87.5 60 -87.5 60 -66.5 8 -66.5"/><text x="21.5" y="-73.3" fill="#000" font-family="Times,Liberation Serif,serif" font-size="14" text-anchor="start">nom</text><polygon fill="none" stroke="#000" points="60 -66.5 60 -87.5 100 -87.5 100 -66.5 60 -66.5"/><text x="63" y="-73.3" fill="#000" font-family="Times,Liberation Serif,serif" font-size="14" text-anchor="start">valeur</text><polygon fill="none" stroke="#000" points="8 -45.5 8 -66.5 60 -66.5 60 -45.5 8 -45.5"/><text x="11" y="-52.3" fill="#000" font-family="Times,Liberation Serif,serif" font-size="14" text-anchor="start">pointeur</text><polygon fill="none" stroke="#000" points="60 -45.5 60 -66.5 100 -66.5 100 -45.5 60 -45.5"/><polygon fill="none" stroke="#000" points="8 -24.5 8 -45.5 60 -45.5 60 -24.5 8 -24.5"/><text x="20" y="-31.3" fill="#000" font-family="Times,Liberation Serif,serif" font-size="14" text-anchor="start">taille</text><polygon fill="none" stroke="#000" points="60 -24.5 60 -45.5 100 -45.5 100 -24.5 60 -24.5"/><text x="76.5" y="-31.3" fill="#000" font-family="Times,Liberation Serif,serif" font-size="14" text-anchor="start">5</text><polygon fill="none" stroke="#000" points="8 -3.5 8 -24.5 60 -24.5 60 -3.5 8 -3.5"/><text x="11.5" y="-10.3" fill="#000" font-family="Times,Liberation Serif,serif" font-size="14" text-anchor="start">capacité</text><polygon fill="none" stroke="#000" points="60 -3.5 60 -24.5 100 -24.5 100 -3.5 60 -3.5"/><text x="76.5" y="-10.3" fill="#000" font-family="Times,Liberation Serif,serif" font-size="14" text-anchor="start">5</text></g><g id="edge2" class="edge"><title>table3:c-&gt;table1:pointee</title><path fill="none" stroke="#000" d="M80,-55.5C80,-55.5 104.3437,-110.2733 141.6858,-119.2596"/><polygon fill="#000" stroke="#000" points="141.654 -122.781 152 -120.5 142.489 -115.831 141.654 -122.781"/></g></g></svg>