<svg xmlns="http://www.w3.org/2000/svg" xmlns:xlink="http://www.w3.org/1999/xlink" viewBox="0 0 1000 680"><g id="graph0" class="graph" transform="scale(4.1667 4.1667) rotate(0) translate(4 160.5)"><title>%3</title><polygon fill="#fff" stroke="transparent" points="-4 4 -4 -160.5 244 -160.5 244 4 -4 4"/><g id="node1" class="node"><title>table0</title><polyline fill="none" stroke="#000" points="8 -131 100 -131"/><text x="47.5" y="-137.8" fill="#000" font-family="Times,Liberation Serif,serif" font-size="14" text-anchor="start">s1</text><polygon fill="none" stroke="#000" points="8 -110 8 -131 60 -131 60 -110 8 -110"/><text x="21.5" y="-116.8" fill="#000" font-family="Times,Liberation Serif,serif" font-size="14" text-anchor="start">nom</text><polygon fill="none" stroke="#000" points="60 -110 60 -131 100 -131 100 -110 60 -110"/><text x="63" y="-116.8" fill="#000" font-family="Times,Liberation Serif,serif" font-size="14" text-anchor="start">valeur</text><polygon fill="none" stroke="#000" points="8 -89 8 -110 60 -110 60 -89 8 -89"/><text x="11" y="-95.8" fill="#000" font-family="Times,Liberation Serif,serif" font-size="14" text-anchor="start">pointeur</text><polygon fill="none" stroke="#000" points="60 -89 60 -110 100 -110 100 -89 60 -89"/><polygon fill="none" stroke="#000" points="8 -68 8 -89 60 -89 60 -68 8 -68"/><text x="20" y="-74.8" fill="#000" font-family="Times,Liberation Serif,serif" font-size="14" text-anchor="start">taille</text><polygon fill="none" stroke="#000" points="60 -68 60 -89 100 -89 100 -68 60 -68"/><text x="76.5" y="-74.8" fill="#000" font-family="Times,Liberation Serif,serif" font-size="14" text-anchor="start">5</text><polygon fill="none" stroke="#000" points="8 -47 8 -68 60 -68 60 -47 8 -47"/><text x="11.5" y="-53.8" fill="#000" font-family="Times,Liberation Serif,serif" font-size="14" text-anchor="start">capacité</text><polygon fill="none" stroke="#000" points="60 -47 60 -68 100 -68 100 -47 60 -47"/><text x="76.5" y="-53.8" fill="#000" font-family="Times,Liberation Serif,serif" font-size="14" text-anchor="start">5</text></g><g id="node2" class="node"><title>table1</title><polygon fill="none" stroke="#000" points="152 -109 152 -130 192 -130 192 -109 152 -109"/><text x="155" y="-115.8" fill="#000" font-family="Times,Liberation Serif,serif" font-size="14" text-anchor="start">indice</text><polygon fill="none" stroke="#000" points="192 -109 192 -130 232 -130 232 -109 192 -109"/><text x="195" y="-115.8" fill="#000" font-family="Times,Liberation Serif,serif" font-size="14" text-anchor="start">valeur</text><polygon fill="none" stroke="#000" points="152 -88 152 -109 192 -109 192 -88 152 -88"/><text x="168.5" y="-94.8" fill="#000" font-family="Times,Liberation Serif,serif" font-size="14" text-anchor="start">0</text><polygon fill="none" stroke="#000" points="192 -88 192 -109 232 -109 232 -88 192 -88"/><text x="208.5" y="-94.8" fill="#000" font-family="Times,Liberation Serif,serif" font-size="14" text-anchor="start">h</text><polygon fill="none" stroke="#000" points="152 -67 152 -88 192 -88 192 -67 152 -67"/><text x="168.5" y="-73.8" fill="#000" font-family="Times,Liberation Serif,serif" font-size="14" text-anchor="start">1</text><polygon fill="none" stroke="#000" points="192 -67 192 -88 232 -88 232 -67 192 -67"/><text x="208.5" y="-73.8" fill="#000" font-family="Times,Liberation Serif,serif" font-size="14" text-anchor="start">e</text><polygon fill="none" stroke="#000" points="152 -46 152 -67 192 -67 192 -46 152 -46"/><text x="168.5" y="-52.8" fill="#000" font-family="Times,Liberation Serif,serif" font-size="14" text-anchor="start">2</text><polygon fill="none" stroke="#000" points="192 -46 192 -67 232 -67 232 -46 192 -46"/><text x="210" y="-52.8" fill="#000" font-family="Times,Liberation Serif,serif" font-size="14" text-anchor="start">l</text><polygon fill="none" stroke="#000" points="152 -25 152 -46 192 -46 192 -25 152 -25"/><text x="168.5" y="-31.8" fill="#000" font-family="Times,Liberation Serif,serif" font-size="14" text-anchor="start">3</text><polygon fill="none" stroke="#000" points="192 -25 192 -46 232 -46 232 -25 192 -25"/><text x="210" y="-31.8" fill="#000" font-family="Times,Liberation Serif,serif" font-size="14" text-anchor="start">l</text><polygon fill="none" stroke="#000" points="152 -4 152 -25 192 -25 192 -4 152 -4"/><text x="168.5" y="-10.8" fill="#000" font-family="Times,Liberation Serif,serif" font-size="14" text-anchor="start">4</text><polygon fill="none" stroke="#000" points="192 -4 192 -25 232 -25 232 -4 192 -4"/><text x="208.5" y="-10.8" fill="#000" font-family="Times,Liberation Serif,serif" font-size="14" text-anchor="start">o</text></g><g id="edge1" class="edge"><title>table0:c-&gt;table1:pointee</title><path fill="none" stroke="#000" d="M80,-99C80,-99 112.0074,-99 141.6643,-99"/><polygon fill="#000" stroke="#000" points="142 -102.5 152 -99 142 -95.5 142 -102.5"/></g></g></svg>