<svg xmlns="http://www.w3.org/2000/svg" xmlns:xlink="http://www.w3.org/1999/xlink" viewBox="0 0 1000 1200"><g id="graph0" class="graph" transform="scale(4.1667 4.1667) rotate(0) translate(4 288.5)"><title>%3</title><polygon fill="#fff" stroke="transparent" points="-4 4 -4 -288.5 244 -288.5 244 4 -4 4"/><g id="node1" class="node"><title>table0</title><polyline fill="none" stroke="#000" points="8 -128 100 -128"/><text x="38" y="-134.8" fill="#000" font-family="Times,Liberation Serif,serif" font-size="14" text-anchor="start">world</text><polygon fill="none" stroke="#000" points="8 -107 8 -128 60 -128 60 -107 8 -107"/><text x="21.5" y="-113.8" fill="#000" font-family="Times,Liberation Serif,serif" font-size="14" text-anchor="start">nom</text><polygon fill="none" stroke="#000" points="60 -107 60 -128 100 -128 100 -107 60 -107"/><text x="63" y="-113.8" fill="#000" font-family="Times,Liberation Serif,serif" font-size="14" text-anchor="start">valeur</text><polygon fill="none" stroke="#000" points="8 -86 8 -107 60 -107 60 -86 8 -86"/><text x="11" y="-92.8" fill="#000" font-family="Times,Liberation Serif,serif" font-size="14" text-anchor="start">pointeur</text><polygon fill="none" stroke="#000" points="60 -86 60 -107 100 -107 100 -86 60 -86"/><polygon fill="none" stroke="#000" points="8 -65 8 -86 60 -86 60 -65 8 -65"/><text x="20" y="-71.8" fill="#000" font-family="Times,Liberation Serif,serif" font-size="14" text-anchor="start">taille</text><polygon fill="none" stroke="#000" points="60 -65 60 -86 100 -86 100 -65 60 -65"/><text x="76.5" y="-71.8" fill="#000" font-family="Times,Liberation Serif,serif" font-size="14" text-anchor="start">5</text></g><g id="node3" class="node"><title>table4</title><polygon fill="none" stroke="#000" points="152 -235 152 -256 192 -256 192 -235 152 -235"/><text x="155" y="-241.8" fill="#000" font-family="Times,Liberation Serif,serif" font-size="14" text-anchor="start">indice</text><polygon fill="none" stroke="#000" points="192 -235 192 -256 232 -256 232 -235 192 -235"/><text x="195" y="-241.8" fill="#000" font-family="Times,Liberation Serif,serif" font-size="14" text-anchor="start">valeur</text><polygon fill="none" stroke="#000" points="152 -214 152 -235 192 -235 192 -214 152 -214"/><text x="168.5" y="-220.8" fill="#000" font-family="Times,Liberation Serif,serif" font-size="14" text-anchor="start">0</text><polygon fill="none" stroke="#000" points="192 -214 192 -235 232 -235 232 -214 192 -214"/><text x="208.5" y="-220.8" fill="#000" font-family="Times,Liberation Serif,serif" font-size="14" text-anchor="start">h</text><polygon fill="none" stroke="#000" points="152 -193 152 -214 192 -214 192 -193 152 -193"/><text x="168.5" y="-199.8" fill="#000" font-family="Times,Liberation Serif,serif" font-size="14" text-anchor="start">1</text><polygon fill="none" stroke="#000" points="192 -193 192 -214 232 -214 232 -193 192 -193"/><text x="208.5" y="-199.8" fill="#000" font-family="Times,Liberation Serif,serif" font-size="14" text-anchor="start">e</text><polygon fill="none" stroke="#000" points="152 -172 152 -193 192 -193 192 -172 152 -172"/><text x="168.5" y="-178.8" fill="#000" font-family="Times,Liberation Serif,serif" font-size="14" text-anchor="start">2</text><polygon fill="none" stroke="#000" points="192 -172 192 -193 232 -193 232 -172 192 -172"/><text x="210" y="-178.8" fill="#000" font-family="Times,Liberation Serif,serif" font-size="14" text-anchor="start">l</text><polygon fill="none" stroke="#000" points="152 -151 152 -172 192 -172 192 -151 152 -151"/><text x="168.5" y="-157.8" fill="#000" font-family="Times,Liberation Serif,serif" font-size="14" text-anchor="start">3</text><polygon fill="none" stroke="#000" points="192 -151 192 -172 232 -172 232 -151 192 -151"/><text x="210" y="-157.8" fill="#000" font-family="Times,Liberation Serif,serif" font-size="14" text-anchor="start">l</text><polygon fill="none" stroke="#000" points="152 -130 152 -151 192 -151 192 -130 152 -130"/><text x="168.5" y="-136.8" fill="#000" font-family="Times,Liberation Serif,serif" font-size="14" text-anchor="start">4</text><polygon fill="none" stroke="#000" points="192 -130 192 -151 232 -151 232 -130 192 -130"/><text x="208.5" y="-136.8" fill="#000" font-family="Times,Liberation Serif,serif" font-size="14" text-anchor="start">o</text><polygon fill="none" stroke="#000" points="152 -109 152 -130 192 -130 192 -109 152 -109"/><text x="168.5" y="-115.8" fill="#000" font-family="Times,Liberation Serif,serif" font-size="14" text-anchor="start">5</text><polygon fill="none" stroke="#000" points="192 -109 192 -130 232 -130 232 -109 192 -109"/><polygon fill="none" stroke="#000" points="152 -88 152 -109 192 -109 192 -88 152 -88"/><text x="168.5" y="-94.8" fill="#000" font-family="Times,Liberation Serif,serif" font-size="14" text-anchor="start">6</text><polygon fill="none" stroke="#000" points="192 -88 192 -109 232 -109 232 -88 192 -88"/><text x="207" y="-94.8" fill="#000" font-family="Times,Liberation Serif,serif" font-size="14" text-anchor="start">w</text><polygon fill="none" stroke="#000" points="152 -67 152 -88 192 -88 192 -67 152 -67"/><text x="168.5" y="-73.8" fill="#000" font-family="Times,Liberation Serif,serif" font-size="14" text-anchor="start">7</text><polygon fill="none" stroke="#000" points="192 -67 192 -88 232 -88 232 -67 192 -67"/><text x="208.5" y="-73.8" fill="#000" font-family="Times,Liberation Serif,serif" font-size="14" text-anchor="start">o</text><polygon fill="none" stroke="#000" points="152 -46 152 -67 192 -67 192 -46 152 -46"/><text x="168.5" y="-52.8" fill="#000" font-family="Times,Liberation Serif,serif" font-size="14" text-anchor="start">8</text><polygon fill="none" stroke="#000" points="192 -46 192 -67 232 -67 232 -46 192 -46"/><text x="209.5" y="-52.8" fill="#000" font-family="Times,Liberation Serif,serif" font-size="14" text-anchor="start">r</text><polygon fill="none" stroke="#000" points="152 -25 152 -46 192 -46 192 -25 152 -25"/><text x="168.5" y="-31.8" fill="#000" font-family="Times,Liberation Serif,serif" font-size="14" text-anchor="start">9</text><polygon fill="none" stroke="#000" points="192 -25 192 -46 232 -46 232 -25 192 -25"/><text x="210" y="-31.8" fill="#000" font-family="Times,Liberation Serif,serif" font-size="14" text-anchor="start">l</text><polygon fill="none" stroke="#000" points="152 -4 152 -25 192 -25 192 -4 152 -4"/><text x="165" y="-10.8" fill="#000" font-family="Times,Liberation Serif,serif" font-size="14" text-anchor="start">10</text><polygon fill="none" stroke="#000" points="192 -4 192 -25 232 -25 232 -4 192 -4"/><text x="208.5" y="-10.8" fill="#000" font-family="Times,Liberation Serif,serif" font-size="14" text-anchor="start">d</text></g><g id="edge1" class="edge"><title>table0:c-&gt;table4:pointee2</title><path fill="none" stroke="#000" d="M80,-96C80,-96 111.9976,-97.6004 141.6612,-97.938"/><polygon fill="#000" stroke="#000" points="141.979 -101.44 152 -98 142.021 -94.44 141.979 -101.44"/></g><g id="node2" class="node"><title>table3</title><polyline fill="none" stroke="#000" points="8 -259 100 -259"/><text x="51" y="-265.8" fill="#000" font-family="Times,Liberation Serif,serif" font-size="14" text-anchor="start">s</text><polygon fill="none" stroke="#000" points="8 -238 8 -259 60 -259 60 -238 8 -238"/><text x="21.5" y="-244.8" fill="#000" font-family="Times,Liberation Serif,serif" font-size="14" text-anchor="start">nom</text><polygon fill="none" stroke="#000" points="60 -238 60 -259 100 -259 100 -238 60 -238"/><text x="63" y="-244.8" fill="#000" font-family="Times,Liberation Serif,serif" font-size="14" text-anchor="start">valeur</text><polygon fill="none" stroke="#000" points="8 -217 8 -238 60 -238 60 -217 8 -217"/><text x="11" y="-223.8" fill="#000" font-family="Times,Liberation Serif,serif" font-size="14" text-anchor="start">pointeur</text><polygon fill="none" stroke="#000" points="60 -217 60 -238 100 -238 100 -217 60 -217"/><polygon fill="none" stroke="#000" points="8 -196 8 -217 60 -217 60 -196 8 -196"/><text x="20" y="-202.8" fill="#000" font-family="Times,Liberation Serif,serif" font-size="14" text-anchor="start">taille</text><polygon fill="none" stroke="#000" points="60 -196 60 -217 100 -217 100 -196 60 -196"/><text x="73" y="-202.8" fill="#000" font-family="Times,Liberation Serif,serif" font-size="14" text-anchor="start">11</text><polygon fill="none" stroke="#000" points="8 -175 8 -196 60 -196 60 -175 8 -175"/><text x="11.5" y="-181.8" fill="#000" font-family="Times,Liberation Serif,serif" font-size="14" text-anchor="start">capacité</text><polygon fill="none" stroke="#000" points="60 -175 60 -196 100 -196 100 -175 60 -175"/><text x="73" y="-181.8" fill="#000" font-family="Times,Liberation Serif,serif" font-size="14" text-anchor="start">11</text></g><g id="edge2" class="edge"><title>table3:c-&gt;table4:pointee</title><path fill="none" stroke="#000" d="M80,-227C80,-227 111.9976,-225.3996 141.6612,-225.062"/><polygon fill="#000" stroke="#000" points="142.021 -228.56 152 -225 141.979 -221.56 142.021 -228.56"/></g></g></svg>